<svg width="296" height="433" viewBox="0 0 296 433" fill="none" xmlns="http://www.w3.org/2000/svg">
<path d="M107 100C107 88.9543 115.954 80 127 80H169C180.046 80 189 88.9543 189 100V105H107V100Z" fill="#3D405B"/>
<path d="M109.588 276.912C101.799 288.336 74.8577 285.281 57.0506 273.138C39.2435 260.995 14 222.298 21.7898 210.874C29.5795 199.451 68.1383 211.899 85.9454 224.042C103.753 236.185 117.378 265.489 109.588 276.912Z" fill="#3D405B"/>
<path d="M187.105 276.912C194.895 288.336 221.836 285.281 239.643 273.138C257.45 260.995 282.693 222.298 274.904 210.874C267.114 199.451 228.555 211.899 210.748 224.042C192.941 236.185 179.315 265.489 187.105 276.912Z" fill="#3D405B"/>
<path d="M220 278.366C220 310.6 178.098 370 149 370C119.902 370 78 310.6 78 278.366C78 246.131 109.788 220 149 220C188.212 220 220 246.131 220 278.366Z" fill="#E07A5F"/>
<path d="M162 45.4591C190.747 39.694 211.885 89.7519 186.942 110" stroke="#81B29A" stroke-width="7"/>
<rect x="55" y="105" width="186.277" height="116" rx="58" fill="#F4F1DE"/>
<circle cx="148.5" cy="50.5" r="18.5" fill="#81B29A"/>
<circle cx="114.5" cy="164.5" r="18.5" fill="#3D405B"/>
<ellipse cx="184.5" cy="164" rx="18.5" ry="18" fill="#3D405B"/>
<ellipse cx="113" cy="163.5" rx="18" ry="18.5" fill="#E07A5F"/>
<circle cx="182.5" cy="162.5" r="18.5" fill="#E07A5F"/>
<ellipse cx="148.5" cy="391" rx="100.5" ry="10" fill="#EDEDED"/>
</svg>
